<svg width="74" height="14" viewBox="0 0 74 14" fill="none" xmlns="http://www.w3.org/2000/svg">
<path d="M9.27 13L8.514 10.732H3.492L2.736 13H0.054L4.464 0.399999H7.542L11.97 13H9.27ZM4.284 8.41H7.74L6.012 3.262L4.284 8.41ZM18.3234 3.748C19.5354 3.748 20.5674 4.21 21.4194 5.134C22.2834 6.046 22.7154 7.168 22.7154 8.5C22.7154 9.832 22.2834 10.96 21.4194 11.884C20.5674 12.796 19.5354 13.252 18.3234 13.252C17.0634 13.252 16.0914 12.814 15.4074 11.938V13H13.0854V0.399999H15.4074V5.062C16.0914 4.186 17.0634 3.748 18.3234 3.748ZM16.1094 10.336C16.5774 10.804 17.1714 11.038 17.8914 11.038C18.6114 11.038 19.2054 10.804 19.6734 10.336C20.1534 9.856 20.3934 9.244 20.3934 8.5C20.3934 7.756 20.1534 7.15 19.6734 6.682C19.2054 6.202 18.6114 5.962 17.8914 5.962C17.1714 5.962 16.5774 6.202 16.1094 6.682C15.6414 7.15 15.4074 7.756 15.4074 8.5C15.4074 9.244 15.6414 9.856 16.1094 10.336ZM32.021 11.884C31.097 12.796 29.969 13.252 28.637 13.252C27.305 13.252 26.177 12.796 25.253 11.884C24.341 10.96 23.885 9.832 23.885 8.5C23.885 7.168 24.341 6.046 25.253 5.134C26.177 4.21 27.305 3.748 28.637 3.748C29.969 3.748 31.097 4.21 32.021 5.134C32.945 6.046 33.407 7.168 33.407 8.5C33.407 9.832 32.945 10.96 32.021 11.884ZM26.891 10.282C27.359 10.75 27.941 10.984 28.637 10.984C29.333 10.984 29.915 10.75 30.383 10.282C30.851 9.814 31.085 9.22 31.085 8.5C31.085 7.78 30.851 7.186 30.383 6.718C29.915 6.25 29.333 6.016 28.637 6.016C27.941 6.016 27.359 6.25 26.891 6.718C26.435 7.186 26.207 7.78 26.207 8.5C26.207 9.22 26.435 9.814 26.891 10.282ZM40.9805 4H43.3025V13H40.9805V11.992C40.4165 12.832 39.5225 13.252 38.2985 13.252C37.3145 13.252 36.4985 12.922 35.8505 12.262C35.2145 11.602 34.8965 10.69 34.8965 9.526V4H37.2185V9.238C37.2185 9.838 37.3805 10.3 37.7045 10.624C38.0285 10.936 38.4605 11.092 39.0005 11.092C39.6005 11.092 40.0805 10.906 40.4405 10.534C40.8005 10.162 40.9805 9.604 40.9805 8.86V4ZM50.5772 6.232H48.5432V9.976C48.5432 10.288 48.6212 10.516 48.7772 10.66C48.9332 10.804 49.1612 10.888 49.4612 10.912C49.7612 10.924 50.1332 10.918 50.5772 10.894V13C48.9812 13.18 47.8532 13.03 47.1932 12.55C46.5452 12.07 46.2212 11.212 46.2212 9.976V6.232H44.6552V4H46.2212V2.182L48.5432 1.48V4H50.5772V6.232ZM62.795 4H65.117V13H62.795V11.992C62.231 12.832 61.337 13.252 60.113 13.252C59.129 13.252 58.313 12.922 57.665 12.262C57.029 11.602 56.711 10.69 56.711 9.526V4H59.033V9.238C59.033 9.838 59.195 10.3 59.519 10.624C59.843 10.936 60.275 11.092 60.815 11.092C61.415 11.092 61.895 10.906 62.255 10.534C62.615 10.162 62.795 9.604 62.795 8.86V4ZM69.3153 6.556C69.3153 6.796 69.4713 6.994 69.7833 7.15C70.1073 7.294 70.4973 7.426 70.9533 7.546C71.4093 7.654 71.8653 7.798 72.3213 7.978C72.7773 8.146 73.1613 8.434 73.4733 8.842C73.7973 9.25 73.9593 9.76 73.9593 10.372C73.9593 11.296 73.6113 12.01 72.9153 12.514C72.2313 13.006 71.3733 13.252 70.3413 13.252C68.4933 13.252 67.2333 12.538 66.5613 11.11L68.5773 9.976C68.8413 10.756 69.4293 11.146 70.3413 11.146C71.1693 11.146 71.5833 10.888 71.5833 10.372C71.5833 10.132 71.4213 9.94 71.0973 9.796C70.7853 9.64 70.4013 9.502 69.9453 9.382C69.4893 9.262 69.0333 9.112 68.5773 8.932C68.1213 8.752 67.7313 8.47 67.4073 8.086C67.0953 7.69 66.9393 7.198 66.9393 6.61C66.9393 5.722 67.2633 5.026 67.9113 4.522C68.5713 4.006 69.3873 3.748 70.3593 3.748C71.0913 3.748 71.7573 3.916 72.3573 4.252C72.9573 4.576 73.4313 5.044 73.7793 5.656L71.7993 6.736C71.5113 6.124 71.0313 5.818 70.3593 5.818C70.0593 5.818 69.8073 5.884 69.6033 6.016C69.4113 6.148 69.3153 6.328 69.3153 6.556Z" fill="white"/>
</svg>
