<svg width="36" height="18" viewBox="0 0 36 18" fill="none" xmlns="http://www.w3.org/2000/svg">
<path d="M7.784 7.466C8.888 8.102 9.44 9.062 9.44 10.346C9.44 11.414 9.062 12.29 8.306 12.974C7.55 13.658 6.62 14 5.516 14H0.17V1.4H5.138C6.218 1.4 7.124 1.736 7.856 2.408C8.6 3.068 8.972 3.914 8.972 4.946C8.972 5.99 8.576 6.83 7.784 7.466ZM5.138 3.722H2.654V6.494H5.138C5.522 6.494 5.84 6.362 6.092 6.098C6.356 5.834 6.488 5.504 6.488 5.108C6.488 4.712 6.362 4.382 6.11 4.118C5.858 3.854 5.534 3.722 5.138 3.722ZM5.516 11.678C5.936 11.678 6.284 11.54 6.56 11.264C6.836 10.976 6.974 10.616 6.974 10.184C6.974 9.764 6.836 9.416 6.56 9.14C6.284 8.852 5.936 8.708 5.516 8.708H2.654V11.678H5.516ZM10.9604 14V0.86H13.2824V14H10.9604ZM23.0757 12.884C22.1517 13.796 21.0237 14.252 19.6917 14.252C18.3597 14.252 17.2317 13.796 16.3077 12.884C15.3957 11.96 14.9397 10.832 14.9397 9.5C14.9397 8.168 15.3957 7.046 16.3077 6.134C17.2317 5.21 18.3597 4.748 19.6917 4.748C21.0237 4.748 22.1517 5.21 23.0757 6.134C23.9997 7.046 24.4617 8.168 24.4617 9.5C24.4617 10.832 23.9997 11.96 23.0757 12.884ZM17.9457 11.282C18.4137 11.75 18.9957 11.984 19.6917 11.984C20.3877 11.984 20.9697 11.75 21.4377 11.282C21.9057 10.814 22.1397 10.22 22.1397 9.5C22.1397 8.78 21.9057 8.186 21.4377 7.718C20.9697 7.25 20.3877 7.016 19.6917 7.016C18.9957 7.016 18.4137 7.25 17.9457 7.718C17.4897 8.186 17.2617 8.78 17.2617 9.5C17.2617 10.22 17.4897 10.814 17.9457 11.282ZM32.9892 5H35.2572V13.568C35.2572 14.96 34.7952 16.022 33.8712 16.754C32.9592 17.486 31.8552 17.852 30.5592 17.852C29.5872 17.852 28.7292 17.666 27.9852 17.294C27.2532 16.922 26.6892 16.376 26.2932 15.656L28.2732 14.522C28.7292 15.362 29.5152 15.782 30.6312 15.782C31.3632 15.782 31.9392 15.59 32.3592 15.206C32.7792 14.822 32.9892 14.276 32.9892 13.568V12.596C32.3052 13.508 31.3452 13.964 30.1092 13.964C28.8372 13.964 27.7692 13.52 26.9052 12.632C26.0532 11.732 25.6272 10.64 25.6272 9.356C25.6272 8.084 26.0592 6.998 26.9232 6.098C27.7872 5.198 28.8492 4.748 30.1092 4.748C31.3452 4.748 32.3052 5.204 32.9892 6.116V5ZM28.6512 11.138C29.1312 11.594 29.7372 11.822 30.4692 11.822C31.2012 11.822 31.8012 11.594 32.2692 11.138C32.7492 10.67 32.9892 10.076 32.9892 9.356C32.9892 8.648 32.7492 8.066 32.2692 7.61C31.8012 7.142 31.2012 6.908 30.4692 6.908C29.7372 6.908 29.1312 7.142 28.6512 7.61C28.1832 8.066 27.9492 8.648 27.9492 9.356C27.9492 10.076 28.1832 10.67 28.6512 11.138Z" fill="white"/>
</svg>
