<svg width="97" height="19" viewBox="0 0 97 19" fill="none" xmlns="http://www.w3.org/2000/svg">
<g filter="url(#filter0_d)">
<path d="M6.654 10.624H11.964V13H4.17V0.399999H11.874V2.776H6.654V5.458H11.424V7.798H6.654V10.624ZM20.2356 4H22.5576V16.6H20.2356V11.938C19.5516 12.814 18.5796 13.252 17.3196 13.252C16.1076 13.252 15.0696 12.796 14.2056 11.884C13.3536 10.96 12.9276 9.832 12.9276 8.5C12.9276 7.168 13.3536 6.046 14.2056 5.134C15.0696 4.21 16.1076 3.748 17.3196 3.748C18.5796 3.748 19.5516 4.186 20.2356 5.062V4ZM15.9516 10.336C16.4316 10.804 17.0316 11.038 17.7516 11.038C18.4716 11.038 19.0656 10.804 19.5336 10.336C20.0016 9.856 20.2356 9.244 20.2356 8.5C20.2356 7.756 20.0016 7.15 19.5336 6.682C19.0656 6.202 18.4716 5.962 17.7516 5.962C17.0316 5.962 16.4316 6.202 15.9516 6.682C15.4836 7.15 15.2496 7.756 15.2496 8.5C15.2496 9.244 15.4836 9.856 15.9516 10.336ZM30.6211 4H32.9431V13H30.6211V11.992C30.0571 12.832 29.1631 13.252 27.9391 13.252C26.9551 13.252 26.1391 12.922 25.4911 12.262C24.8551 11.602 24.5371 10.69 24.5371 9.526V4H26.8591V9.238C26.8591 9.838 27.0211 10.3 27.3451 10.624C27.6691 10.936 28.1011 11.092 28.6411 11.092C29.2411 11.092 29.7211 10.906 30.0811 10.534C30.4411 10.162 30.6211 9.604 30.6211 8.86V4ZM36.2218 2.92C35.8378 2.92 35.5018 2.782 35.2138 2.506C34.9378 2.218 34.7998 1.882 34.7998 1.498C34.7998 1.114 34.9378 0.778 35.2138 0.489999C35.5018 0.201999 35.8378 0.0579993 36.2218 0.0579993C36.6178 0.0579993 36.9538 0.201999 37.2298 0.489999C37.5178 0.778 37.6618 1.114 37.6618 1.498C37.6618 1.882 37.5178 2.218 37.2298 2.506C36.9538 2.782 36.6178 2.92 36.2218 2.92ZM35.0698 13V4H37.3918V13H35.0698ZM44.7551 3.748C45.9671 3.748 46.9991 4.21 47.8511 5.134C48.7151 6.046 49.1471 7.168 49.1471 8.5C49.1471 9.832 48.7151 10.96 47.8511 11.884C46.9991 12.796 45.9671 13.252 44.7551 13.252C43.4951 13.252 42.5231 12.814 41.8391 11.938V16.6H39.5171V4H41.8391V5.062C42.5231 4.186 43.4951 3.748 44.7551 3.748ZM42.5411 10.336C43.0091 10.804 43.6031 11.038 44.3231 11.038C45.0431 11.038 45.6371 10.804 46.1051 10.336C46.5851 9.856 46.8251 9.244 46.8251 8.5C46.8251 7.756 46.5851 7.15 46.1051 6.682C45.6371 6.202 45.0431 5.962 44.3231 5.962C43.6031 5.962 43.0091 6.202 42.5411 6.682C42.0731 7.15 41.8391 7.756 41.8391 8.5C41.8391 9.244 42.0731 9.856 42.5411 10.336ZM60.7387 3.748C61.7707 3.748 62.5927 4.084 63.2047 4.756C63.8287 5.428 64.1407 6.328 64.1407 7.456V13H61.8187V7.618C61.8187 7.078 61.6867 6.658 61.4227 6.358C61.1587 6.058 60.7867 5.908 60.3067 5.908C59.7787 5.908 59.3647 6.082 59.0647 6.43C58.7767 6.778 58.6327 7.282 58.6327 7.942V13H56.3107V7.618C56.3107 7.078 56.1787 6.658 55.9147 6.358C55.6507 6.058 55.2787 5.908 54.7987 5.908C54.2827 5.908 53.8687 6.082 53.5567 6.43C53.2567 6.778 53.1067 7.282 53.1067 7.942V13H50.7847V4H53.1067V4.954C53.6467 4.15 54.4807 3.748 55.6087 3.748C56.7127 3.748 57.5287 4.18 58.0567 5.044C58.6567 4.18 59.5507 3.748 60.7387 3.748ZM68.0748 9.454C68.3868 10.582 69.2328 11.146 70.6128 11.146C71.5008 11.146 72.1728 10.846 72.6288 10.246L74.5008 11.326C73.6128 12.61 72.3048 13.252 70.5768 13.252C69.0888 13.252 67.8948 12.802 66.9948 11.902C66.0948 11.002 65.6448 9.868 65.6448 8.5C65.6448 7.144 66.0888 6.016 66.9768 5.116C67.8648 4.204 69.0048 3.748 70.3968 3.748C71.7168 3.748 72.8028 4.204 73.6548 5.116C74.5188 6.028 74.9508 7.156 74.9508 8.5C74.9508 8.8 74.9208 9.118 74.8608 9.454H68.0748ZM68.0388 7.654H72.6288C72.4968 7.042 72.2208 6.586 71.8008 6.286C71.3928 5.986 70.9248 5.836 70.3968 5.836C69.7728 5.836 69.2568 5.998 68.8488 6.322C68.4408 6.634 68.1708 7.078 68.0388 7.654ZM81.5758 3.748C82.5598 3.748 83.3698 4.078 84.0058 4.738C84.6538 5.398 84.9778 6.31 84.9778 7.474V13H82.6558V7.762C82.6558 7.162 82.4938 6.706 82.1698 6.394C81.8458 6.07 81.4138 5.908 80.8738 5.908C80.2738 5.908 79.7938 6.094 79.4338 6.466C79.0738 6.838 78.8938 7.396 78.8938 8.14V13H76.5718V4H78.8938V5.008C79.4578 4.168 80.3518 3.748 81.5758 3.748ZM92.1084 6.232H90.0744V9.976C90.0744 10.288 90.1524 10.516 90.3084 10.66C90.4644 10.804 90.6924 10.888 90.9924 10.912C91.2924 10.924 91.6644 10.918 92.1084 10.894V13C90.5124 13.18 89.3844 13.03 88.7244 12.55C88.0764 12.07 87.7524 11.212 87.7524 9.976V6.232H86.1864V4H87.7524V2.182L90.0744 1.48V4H92.1084V6.232Z" fill="white"/>
</g>
<defs>
<filter id="filter0_d" x="0.169998" y="0.0580139" width="95.9384" height="24.542" filterUnits="userSpaceOnUse" color-interpolation-filters="sRGB">
<feFlood flood-opacity="0" result="BackgroundImageFix"/>
<feColorMatrix in="SourceAlpha" type="matrix" values="0 0 0 0 0 0 0 0 0 0 0 0 0 0 0 0 0 0 127 0" result="hardAlpha"/>
<feOffset dy="4"/>
<feGaussianBlur stdDeviation="2"/>
<feComposite in2="hardAlpha" operator="out"/>
<feColorMatrix type="matrix" values="0 0 0 0 0 0 0 0 0 0 0 0 0 0 0 0 0 0 0.25 0"/>
<feBlend mode="normal" in2="BackgroundImageFix" result="effect1_dropShadow"/>
<feBlend mode="normal" in="SourceGraphic" in2="effect1_dropShadow" result="shape"/>
</filter>
</defs>
</svg>
