<svg width="454" height="22" viewBox="0 0 454 22" fill="none" xmlns="http://www.w3.org/2000/svg">
<path d="M99.654 17L96.18 4.4H99.204L101.382 13.22L103.812 4.4H106.152L108.582 13.22L110.76 4.4H113.784L110.31 17H107.034L104.982 9.566L102.93 17H99.654ZM127.885 4.4H130.765V17H127.885V11.996H123.925V17H121.045V4.4H123.925V9.224H127.885V4.4ZM141.808 14.228H146.848V17H138.928V4.4H146.758V7.172H141.808V9.26H146.308V11.996H141.808V14.228ZM161.097 17L158.721 12.86H157.353V17H154.473V4.4H159.513C160.713 4.4 161.733 4.82 162.573 5.66C163.413 6.5 163.833 7.52 163.833 8.72C163.833 9.488 163.617 10.202 163.185 10.862C162.765 11.51 162.207 12.014 161.511 12.374L164.193 17H161.097ZM157.353 7.1V10.34H159.513C159.909 10.34 160.245 10.184 160.521 9.872C160.809 9.56 160.953 9.176 160.953 8.72C160.953 8.264 160.809 7.88 160.521 7.568C160.245 7.256 159.909 7.1 159.513 7.1H157.353ZM174.427 14.228H179.467V17H171.547V4.4H179.377V7.172H174.427V9.26H178.927V11.996H174.427V14.228ZM207.852 4.4L203.622 12.158V17H200.742V12.158L196.512 4.4H199.788L202.182 9.26L204.576 4.4H207.852ZM224.689 15.362C223.417 16.622 221.869 17.252 220.045 17.252C218.221 17.252 216.673 16.622 215.401 15.362C214.129 14.102 213.493 12.548 213.493 10.7C213.493 8.852 214.129 7.298 215.401 6.038C216.673 4.778 218.221 4.148 220.045 4.148C221.869 4.148 223.417 4.778 224.689 6.038C225.961 7.298 226.597 8.852 226.597 10.7C226.597 12.548 225.961 14.102 224.689 15.362ZM217.417 13.4C218.125 14.096 219.001 14.444 220.045 14.444C221.089 14.444 221.959 14.096 222.655 13.4C223.363 12.704 223.717 11.804 223.717 10.7C223.717 9.596 223.363 8.696 222.655 8C221.959 7.304 221.089 6.956 220.045 6.956C219.001 6.956 218.125 7.304 217.417 8C216.721 8.696 216.373 9.596 216.373 10.7C216.373 11.804 216.721 12.704 217.417 13.4ZM242.393 16.082C241.481 16.862 240.317 17.252 238.901 17.252C237.485 17.252 236.321 16.862 235.409 16.082C234.497 15.302 234.041 14.252 234.041 12.932V4.4H236.921V12.68C236.921 13.856 237.581 14.444 238.901 14.444C240.221 14.444 240.881 13.856 240.881 12.68V4.4H243.761V12.932C243.761 14.252 243.305 15.302 242.393 16.082ZM274.812 9.98V11.06C274.812 12.944 274.224 14.45 273.048 15.578C271.884 16.694 270.402 17.252 268.602 17.252C266.646 17.252 265.02 16.622 263.724 15.362C262.44 14.102 261.798 12.554 261.798 10.718C261.798 8.882 262.434 7.328 263.706 6.056C264.99 4.784 266.556 4.148 268.404 4.148C269.58 4.148 270.654 4.412 271.626 4.94C272.61 5.468 273.372 6.164 273.912 7.028L271.464 8.432C271.188 8 270.774 7.646 270.222 7.37C269.682 7.094 269.07 6.956 268.386 6.956C267.318 6.956 266.43 7.31 265.722 8.018C265.026 8.726 264.678 9.632 264.678 10.736C264.678 11.828 265.038 12.722 265.758 13.418C266.478 14.102 267.438 14.444 268.638 14.444C270.306 14.444 271.38 13.796 271.86 12.5H268.494V9.98H274.812ZM293.091 15.362C291.819 16.622 290.271 17.252 288.447 17.252C286.623 17.252 285.075 16.622 283.803 15.362C282.531 14.102 281.895 12.548 281.895 10.7C281.895 8.852 282.531 7.298 283.803 6.038C285.075 4.778 286.623 4.148 288.447 4.148C290.271 4.148 291.819 4.778 293.091 6.038C294.363 7.298 294.999 8.852 294.999 10.7C294.999 12.548 294.363 14.102 293.091 15.362ZM285.819 13.4C286.527 14.096 287.403 14.444 288.447 14.444C289.491 14.444 290.361 14.096 291.057 13.4C291.765 12.704 292.119 11.804 292.119 10.7C292.119 9.596 291.765 8.696 291.057 8C290.361 7.304 289.491 6.956 288.447 6.956C287.403 6.956 286.527 7.304 285.819 8C285.123 8.696 284.775 9.596 284.775 10.7C284.775 11.804 285.123 12.704 285.819 13.4ZM313.121 4.4H316.001V17H313.121V4.4ZM328.4 17.252C327.116 17.252 326.042 16.976 325.178 16.424C324.326 15.86 323.72 15.098 323.36 14.138L325.844 12.698C326.348 13.862 327.23 14.444 328.49 14.444C329.63 14.444 330.2 14.102 330.2 13.418C330.2 13.046 330.014 12.758 329.642 12.554C329.282 12.338 328.598 12.092 327.59 11.816C327.062 11.672 326.6 11.51 326.204 11.33C325.808 11.15 325.418 10.916 325.034 10.628C324.662 10.328 324.374 9.956 324.17 9.512C323.978 9.068 323.882 8.558 323.882 7.982C323.882 6.818 324.296 5.888 325.124 5.192C325.964 4.496 326.96 4.148 328.112 4.148C329.144 4.148 330.056 4.394 330.848 4.886C331.64 5.366 332.264 6.068 332.72 6.992L330.29 8.414C330.062 7.934 329.78 7.574 329.444 7.334C329.108 7.082 328.664 6.956 328.112 6.956C327.68 6.956 327.344 7.052 327.104 7.244C326.876 7.424 326.762 7.646 326.762 7.91C326.762 8.222 326.906 8.492 327.194 8.72C327.494 8.948 328.106 9.2 329.03 9.476C329.534 9.632 329.924 9.758 330.2 9.854C330.476 9.95 330.824 10.112 331.244 10.34C331.676 10.556 332 10.79 332.216 11.042C332.444 11.282 332.642 11.606 332.81 12.014C332.99 12.41 333.08 12.866 333.08 13.382C333.08 14.582 332.648 15.53 331.784 16.226C330.92 16.91 329.792 17.252 328.4 17.252ZM359.479 4.4V7.172H356.239V17H353.359V7.172H350.119V4.4H359.479ZM373.58 4.4H376.46V17H373.58V11.996H369.62V17H366.74V4.4H369.62V9.224H373.58V4.4ZM387.503 14.228H392.543V17H384.623V4.4H392.453V7.172H387.503V9.26H392.003V11.996H387.503V14.228ZM420.856 17H417.58L413.548 11.168V17H410.668V4.4H413.548V9.872L417.4 4.4H420.676L416.428 10.538L420.856 17ZM430.815 14.228H435.855V17H427.935V4.4H435.765V7.172H430.815V9.26H435.315V11.996H430.815V14.228ZM453.74 4.4L449.51 12.158V17H446.63V12.158L442.4 4.4H445.676L448.07 9.26L450.464 4.4H453.74Z" fill="#FBD784"/>
<rect y="10" width="72" height="2" fill="#FBD784"/>
</svg>
