<svg width="159" height="18" viewBox="0 0 159 18" fill="none" xmlns="http://www.w3.org/2000/svg">
<path d="M17 0.199999V17H13.712V6.104L8.984 13.904H8.6L3.872 6.128V17H0.56V0.199999H3.968L8.792 8.144L13.592 0.199999H17ZM30.2103 15.512C28.9783 16.728 27.4743 17.336 25.6983 17.336C23.9223 17.336 22.4183 16.728 21.1863 15.512C19.9703 14.28 19.3623 12.776 19.3623 11C19.3623 9.224 19.9703 7.728 21.1863 6.512C22.4183 5.28 23.9223 4.664 25.6983 4.664C27.4743 4.664 28.9783 5.28 30.2103 6.512C31.4423 7.728 32.0583 9.224 32.0583 11C32.0583 12.776 31.4423 14.28 30.2103 15.512ZM23.3703 13.376C23.9943 14 24.7703 14.312 25.6983 14.312C26.6263 14.312 27.4023 14 28.0263 13.376C28.6503 12.752 28.9623 11.96 28.9623 11C28.9623 10.04 28.6503 9.248 28.0263 8.624C27.4023 8 26.6263 7.688 25.6983 7.688C24.7703 7.688 23.9943 8 23.3703 8.624C22.7623 9.248 22.4583 10.04 22.4583 11C22.4583 11.96 22.7623 12.752 23.3703 13.376ZM37.3323 7.064C37.6203 6.296 38.0923 5.72 38.7483 5.336C39.4203 4.952 40.1643 4.76 40.9803 4.76V8.216C40.0363 8.104 39.1883 8.296 38.4363 8.792C37.7003 9.288 37.3323 10.112 37.3323 11.264V17H34.2363V5H37.3323V7.064ZM44.9617 12.272C45.3777 13.776 46.5057 14.528 48.3457 14.528C49.5297 14.528 50.4257 14.128 51.0337 13.328L53.5297 14.768C52.3457 16.48 50.6017 17.336 48.2977 17.336C46.3137 17.336 44.7217 16.736 43.5217 15.536C42.3217 14.336 41.7217 12.824 41.7217 11C41.7217 9.192 42.3137 7.688 43.4977 6.488C44.6817 5.272 46.2017 4.664 48.0577 4.664C49.8177 4.664 51.2657 5.272 52.4017 6.488C53.5537 7.704 54.1297 9.208 54.1297 11C54.1297 11.4 54.0897 11.824 54.0097 12.272H44.9617ZM44.9137 9.872H51.0337C50.8577 9.056 50.4897 8.448 49.9297 8.048C49.3857 7.648 48.7617 7.448 48.0577 7.448C47.2257 7.448 46.5377 7.664 45.9937 8.096C45.4497 8.512 45.0897 9.104 44.9137 9.872ZM72.515 15.512C71.283 16.728 69.779 17.336 68.003 17.336C66.227 17.336 64.723 16.728 63.491 15.512C62.275 14.28 61.667 12.776 61.667 11C61.667 9.224 62.275 7.728 63.491 6.512C64.723 5.28 66.227 4.664 68.003 4.664C69.779 4.664 71.283 5.28 72.515 6.512C73.747 7.728 74.363 9.224 74.363 11C74.363 12.776 73.747 14.28 72.515 15.512ZM65.675 13.376C66.299 14 67.075 14.312 68.003 14.312C68.931 14.312 69.707 14 70.331 13.376C70.955 12.752 71.267 11.96 71.267 11C71.267 10.04 70.955 9.248 70.331 8.624C69.707 8 68.931 7.688 68.003 7.688C67.075 7.688 66.299 8 65.675 8.624C65.067 9.248 64.763 10.04 64.763 11C64.763 11.96 65.067 12.752 65.675 13.376ZM83.213 4.664C84.525 4.664 85.605 5.104 86.453 5.984C87.317 6.864 87.749 8.08 87.749 9.632V17H84.653V10.016C84.653 9.216 84.437 8.608 84.005 8.192C83.573 7.76 82.997 7.544 82.277 7.544C81.477 7.544 80.837 7.792 80.357 8.288C79.877 8.784 79.637 9.528 79.637 10.52V17H76.541V5H79.637V6.344C80.389 5.224 81.581 4.664 83.213 4.664ZM112.977 0.199999V17H109.689V6.104L104.961 13.904H104.577L99.8486 6.128V17H96.5366V0.199999H99.9446L104.769 8.144L109.569 0.199999H112.977ZM125.827 0.199999H129.139V17H126.619L119.419 6.728V17H116.107V0.199999H118.627L125.827 10.448V0.199999ZM143.367 0.199999V3.368H138.831V17H135.519V3.368H131.007V0.199999H143.367ZM154.936 0.199999H158.248V17H155.728L148.528 6.728V17H145.216V0.199999H147.736L154.936 10.448V0.199999Z" fill="#FBD784"/>
</svg>
