<svg width="191" height="24" viewBox="0 0 191 24" fill="none" xmlns="http://www.w3.org/2000/svg">
<path d="M17 1.2V18H13.712V7.104L8.984 14.904H8.6L3.872 7.128V18H0.56V1.2H3.968L8.792 9.144L13.592 1.2H17ZM30.2103 16.512C28.9783 17.728 27.4743 18.336 25.6983 18.336C23.9223 18.336 22.4183 17.728 21.1863 16.512C19.9703 15.28 19.3623 13.776 19.3623 12C19.3623 10.224 19.9703 8.728 21.1863 7.512C22.4183 6.28 23.9223 5.664 25.6983 5.664C27.4743 5.664 28.9783 6.28 30.2103 7.512C31.4423 8.728 32.0583 10.224 32.0583 12C32.0583 13.776 31.4423 15.28 30.2103 16.512ZM23.3703 14.376C23.9943 15 24.7703 15.312 25.6983 15.312C26.6263 15.312 27.4023 15 28.0263 14.376C28.6503 13.752 28.9623 12.96 28.9623 12C28.9623 11.04 28.6503 10.248 28.0263 9.624C27.4023 9 26.6263 8.688 25.6983 8.688C24.7703 8.688 23.9943 9 23.3703 9.624C22.7623 10.248 22.4583 11.04 22.4583 12C22.4583 12.96 22.7623 13.752 23.3703 14.376ZM37.3323 8.064C37.6203 7.296 38.0923 6.72 38.7483 6.336C39.4203 5.952 40.1643 5.76 40.9803 5.76V9.216C40.0363 9.104 39.1883 9.296 38.4363 9.792C37.7003 10.288 37.3323 11.112 37.3323 12.264V18H34.2363V6H37.3323V8.064ZM44.9617 13.272C45.3777 14.776 46.5057 15.528 48.3457 15.528C49.5297 15.528 50.4257 15.128 51.0337 14.328L53.5297 15.768C52.3457 17.48 50.6017 18.336 48.2977 18.336C46.3137 18.336 44.7217 17.736 43.5217 16.536C42.3217 15.336 41.7217 13.824 41.7217 12C41.7217 10.192 42.3137 8.688 43.4977 7.488C44.6817 6.272 46.2017 5.664 48.0577 5.664C49.8177 5.664 51.2657 6.272 52.4017 7.488C53.5537 8.704 54.1297 10.208 54.1297 12C54.1297 12.4 54.0897 12.824 54.0097 13.272H44.9617ZM44.9137 10.872H51.0337C50.8577 10.056 50.4897 9.448 49.9297 9.048C49.3857 8.648 48.7617 8.448 48.0577 8.448C47.2257 8.448 46.5377 8.664 45.9937 9.096C45.4497 9.512 45.0897 10.104 44.9137 10.872ZM72.515 16.512C71.283 17.728 69.779 18.336 68.003 18.336C66.227 18.336 64.723 17.728 63.491 16.512C62.275 15.28 61.667 13.776 61.667 12C61.667 10.224 62.275 8.728 63.491 7.512C64.723 6.28 66.227 5.664 68.003 5.664C69.779 5.664 71.283 6.28 72.515 7.512C73.747 8.728 74.363 10.224 74.363 12C74.363 13.776 73.747 15.28 72.515 16.512ZM65.675 14.376C66.299 15 67.075 15.312 68.003 15.312C68.931 15.312 69.707 15 70.331 14.376C70.955 13.752 71.267 12.96 71.267 12C71.267 11.04 70.955 10.248 70.331 9.624C69.707 9 68.931 8.688 68.003 8.688C67.075 8.688 66.299 9 65.675 9.624C65.067 10.248 64.763 11.04 64.763 12C64.763 12.96 65.067 13.752 65.675 14.376ZM83.213 5.664C84.525 5.664 85.605 6.104 86.453 6.984C87.317 7.864 87.749 9.08 87.749 10.632V18H84.653V11.016C84.653 10.216 84.437 9.608 84.005 9.192C83.573 8.76 82.997 8.544 82.277 8.544C81.477 8.544 80.837 8.792 80.357 9.288C79.877 9.784 79.637 10.528 79.637 11.52V18H76.541V6H79.637V7.344C80.389 6.224 81.581 5.664 83.213 5.664ZM107.649 1.2V4.368H103.113V18H99.8006V4.368H95.2886V1.2H107.649ZM116.026 5.664C117.338 5.664 118.418 6.104 119.266 6.984C120.13 7.864 120.562 9.08 120.562 10.632V18H117.466V11.016C117.466 10.216 117.25 9.608 116.818 9.192C116.386 8.76 115.81 8.544 115.09 8.544C114.29 8.544 113.65 8.792 113.17 9.288C112.69 9.784 112.45 10.528 112.45 11.52V18H109.354V1.2H112.45V7.344C113.202 6.224 114.394 5.664 116.026 5.664ZM125.821 13.272C126.237 14.776 127.365 15.528 129.205 15.528C130.389 15.528 131.285 15.128 131.893 14.328L134.389 15.768C133.205 17.48 131.461 18.336 129.157 18.336C127.173 18.336 125.581 17.736 124.381 16.536C123.181 15.336 122.581 13.824 122.581 12C122.581 10.192 123.173 8.688 124.357 7.488C125.541 6.272 127.061 5.664 128.917 5.664C130.677 5.664 132.125 6.272 133.261 7.488C134.413 8.704 134.989 10.208 134.989 12C134.989 12.4 134.949 12.824 134.869 13.272H125.821ZM125.773 10.872H131.893C131.717 10.056 131.349 9.448 130.789 9.048C130.245 8.648 129.621 8.448 128.917 8.448C128.085 8.448 127.397 8.664 126.853 9.096C126.309 9.512 125.949 10.104 125.773 10.872ZM153.446 9.288C154.918 10.136 155.654 11.416 155.654 13.128C155.654 14.552 155.15 15.72 154.142 16.632C153.134 17.544 151.894 18 150.422 18H143.294V1.2H149.918C151.358 1.2 152.566 1.648 153.542 2.544C154.534 3.424 155.03 4.552 155.03 5.928C155.03 7.32 154.502 8.44 153.446 9.288ZM149.918 4.296H146.606V7.992H149.918C150.43 7.992 150.854 7.816 151.19 7.464C151.542 7.112 151.718 6.672 151.718 6.144C151.718 5.616 151.55 5.176 151.214 4.824C150.878 4.472 150.446 4.296 149.918 4.296ZM150.422 14.904C150.982 14.904 151.446 14.72 151.814 14.352C152.182 13.968 152.366 13.488 152.366 12.912C152.366 12.352 152.182 11.888 151.814 11.52C151.446 11.136 150.982 10.944 150.422 10.944H146.606V14.904H150.422ZM157.682 18V0.48H160.778V18H157.682ZM173.835 16.512C172.603 17.728 171.099 18.336 169.323 18.336C167.547 18.336 166.043 17.728 164.811 16.512C163.595 15.28 162.987 13.776 162.987 12C162.987 10.224 163.595 8.728 164.811 7.512C166.043 6.28 167.547 5.664 169.323 5.664C171.099 5.664 172.603 6.28 173.835 7.512C175.067 8.728 175.683 10.224 175.683 12C175.683 13.776 175.067 15.28 173.835 16.512ZM166.995 14.376C167.619 15 168.395 15.312 169.323 15.312C170.251 15.312 171.027 15 171.651 14.376C172.275 13.752 172.587 12.96 172.587 12C172.587 11.04 172.275 10.248 171.651 9.624C171.027 9 170.251 8.688 169.323 8.688C168.395 8.688 167.619 9 166.995 9.624C166.387 10.248 166.083 11.04 166.083 12C166.083 12.96 166.387 13.752 166.995 14.376ZM187.053 6H190.077V17.424C190.077 19.28 189.461 20.696 188.229 21.672C187.013 22.648 185.541 23.136 183.813 23.136C182.517 23.136 181.373 22.888 180.381 22.392C179.405 21.896 178.653 21.168 178.125 20.208L180.765 18.696C181.373 19.816 182.421 20.376 183.909 20.376C184.885 20.376 185.653 20.12 186.213 19.608C186.773 19.096 187.053 18.368 187.053 17.424V16.128C186.141 17.344 184.861 17.952 183.213 17.952C181.517 17.952 180.093 17.36 178.941 16.176C177.805 14.976 177.237 13.52 177.237 11.808C177.237 10.112 177.813 8.664 178.965 7.464C180.117 6.264 181.533 5.664 183.213 5.664C184.861 5.664 186.141 6.272 187.053 7.488V6ZM181.269 14.184C181.909 14.792 182.717 15.096 183.693 15.096C184.669 15.096 185.469 14.792 186.093 14.184C186.733 13.56 187.053 12.768 187.053 11.808C187.053 10.864 186.733 10.088 186.093 9.48C185.469 8.856 184.669 8.544 183.693 8.544C182.717 8.544 181.909 8.856 181.269 9.48C180.645 10.088 180.333 10.864 180.333 11.808C180.333 12.768 180.645 13.56 181.269 14.184Z" fill="#FBD784"/>
</svg>
